<svg width="33" height="33" viewBox="0 0 33 33" fill="none" xmlns="http://www.w3.org/2000/svg">
<path d="M23.4134 26.5344C24.2392 26.1908 25.0358 25.7868 25.7958 25.3288L26.4317 24.9455L25.8374 24.5004C25.611 24.3308 25.3868 24.1533 25.1674 23.9703L24.922 23.7658L24.6333 23.9025C19.4045 26.3777 13.6609 26.3788 8.36446 23.9015L8.07476 23.766L7.83028 23.9722C7.61497 24.1538 7.39218 24.3302 7.16458 24.4988L6.564 24.9437L7.2045 25.329C7.96193 25.7846 8.75629 26.1882 9.58157 26.5318C9.19389 27.2597 8.76359 27.9596 8.29459 28.6294C5.78913 27.8141 3.24295 26.5997 0.618034 24.6695C0.0949512 18.6249 1.24523 12.5025 5.37233 6.21193C7.32661 5.30785 9.40771 4.63606 11.5789 4.22996C11.8233 4.69292 12.0824 5.23321 12.267 5.67667L12.4174 6.03801L12.8043 5.97873C15.2454 5.60474 17.7099 5.60454 20.1995 5.97894L20.5854 6.03698L20.7355 5.6767C20.9207 5.23171 21.1746 4.69194 21.415 4.23035C23.5836 4.63636 25.6622 5.30582 27.616 6.20747C31.2022 11.6108 32.9933 17.6801 32.3821 24.6695C29.7568 26.6024 27.208 27.8169 24.6997 28.6323C24.2301 27.9629 23.8009 27.262 23.4134 26.5344ZM7.55138 17.7136C7.55138 19.7802 9.05328 21.5884 11.0181 21.5884C13.0125 21.5884 14.4857 19.7799 14.4849 17.7171C14.5147 15.6396 13.0071 13.8363 11.0181 13.8363C9.02138 13.8363 7.55138 15.6509 7.55138 17.7136ZM18.515 17.7136C18.515 19.7802 20.0169 21.5884 21.9818 21.5884C23.9768 21.5884 25.4467 19.7792 25.4485 17.7175C25.4786 15.6398 23.9708 13.8363 21.9818 13.8363C19.985 13.8363 18.515 15.6509 18.515 17.7136Z" stroke="#C68D00"/>
</svg>
