<svg width="29" height="23" viewBox="0 0 29 23" fill="none" xmlns="http://www.w3.org/2000/svg">
<path d="M27.55 0.383362H1.45C0.649215 0.383362 0 1.03252 0 1.83336V21.1667C0 21.9675 0.649158 22.6167 1.45 22.6167H27.55C28.3508 22.6167 29 21.9675 29 21.1667V1.83336C29 1.03258 28.3508 0.383362 27.55 0.383362ZM28.0333 21.1667C28.0333 21.4337 27.8169 21.65 27.55 21.65H1.45C1.18305 21.65 0.966686 21.4337 0.966686 21.1667V1.83336C0.966686 1.56641 1.18305 1.35005 1.45 1.35005H27.55C27.8169 1.35005 28.0333 1.56641 28.0333 1.83336V21.1667Z" fill="#C68D00"/>
<path d="M26.6254 2.31849C26.4977 2.30733 26.3707 2.34738 26.2726 2.42984L15.122 11.7968C14.7624 12.0991 14.2375 12.0991 13.8779 11.7968L2.72747 2.42979C2.59522 2.31877 2.41374 2.28671 2.25146 2.34573C2.08919 2.40475 1.9707 2.5459 1.94068 2.71599C1.91066 2.88608 1.97364 3.05923 2.1059 3.17025L13.2564 12.5367C13.9751 13.1418 15.0249 13.1418 15.7437 12.5367L26.8941 3.17031C26.9923 3.08789 27.0537 2.96986 27.0649 2.84213C27.076 2.71441 27.036 2.58748 26.9535 2.48932C26.8712 2.39105 26.7531 2.32965 26.6254 2.31849Z" fill="#C68D00"/>
<path d="M9.29609 12.4703C9.12497 12.4321 8.94667 12.4896 8.82999 12.6204L2.0633 19.8704C1.94085 19.9958 1.89588 20.1777 1.94583 20.3457C1.99579 20.5138 2.1328 20.6416 2.30386 20.6797C2.47497 20.7179 2.65327 20.6605 2.76995 20.5296L9.53664 13.2796C9.6591 13.1542 9.70407 12.9723 9.65411 12.8043C9.60415 12.6363 9.4672 12.5085 9.29609 12.4703Z" fill="#C68D00"/>
<path d="M20.17 12.6204C20.0534 12.4896 19.875 12.4321 19.7039 12.4703C19.5328 12.5085 19.3958 12.6363 19.3459 12.8043C19.2959 12.9724 19.3409 13.1542 19.4634 13.2796L26.23 20.5296C26.4136 20.7176 26.7135 20.7246 26.9056 20.5454C27.0977 20.3662 27.1115 20.0664 26.9367 19.8703L20.17 12.6204Z" fill="#C68D00"/>
</svg>
