<svg width="25" height="24" viewBox="0 0 25 24" fill="none" xmlns="http://www.w3.org/2000/svg">
<path d="M23.3719 18.5152L18.5139 15.2754C17.8974 14.8676 17.071 15.0018 16.6152 15.5838L15.2001 17.4033C15.0182 17.643 14.6876 17.7126 14.4246 17.5665L14.1554 17.4181C13.263 16.9317 12.1527 16.3262 9.91572 14.0883C7.67869 11.8505 7.07194 10.7394 6.58555 9.84867L6.43796 9.57948C6.2898 9.31644 6.35804 8.98445 6.59793 8.80114L8.41616 7.38646C8.99793 6.93064 9.13231 6.10449 8.72495 5.4878L5.4852 0.629767C5.06772 0.00178391 4.23013 -0.186733 3.58382 0.201784L1.55237 1.42208C0.914071 1.79733 0.445779 2.40507 0.245685 3.11793C-0.485837 5.78332 0.0644797 10.3834 6.84077 17.1605C12.2312 22.5504 16.2441 23.9999 19.0023 23.9999C19.637 24.0027 20.2693 23.9201 20.8821 23.7544C21.5951 23.5545 22.203 23.0862 22.578 22.4477L23.7995 20.4175C24.1886 19.771 24.0001 18.9329 23.3719 18.5152ZM23.1103 20.0071L21.8916 22.0385C21.6223 22.4993 21.1851 22.8382 20.6717 22.984C18.2111 23.6596 13.9122 23.1001 7.40669 16.5945C0.901181 10.089 0.341677 5.79054 1.01723 3.32956C1.16329 2.81547 1.50254 2.37774 1.96394 2.10804L3.9954 0.88934C4.27583 0.720603 4.63936 0.802394 4.82052 1.0749L8.0575 5.93251C8.2344 6.20001 8.17628 6.55853 7.92392 6.75647L6.10526 8.17114C5.55181 8.59434 5.39376 9.36008 5.73451 9.96781L5.87892 10.2302C6.3901 11.1677 7.02563 12.334 9.34586 14.6539C11.6661 16.9737 12.832 17.6093 13.7691 18.1204L14.0319 18.2652C14.6396 18.6059 15.4053 18.4479 15.8285 17.8944L17.2432 16.0758C17.4412 15.8235 17.7996 15.7655 18.0672 15.9422L22.9248 19.1819C23.1975 19.3629 23.2793 19.7267 23.1103 20.0071Z" fill="#C68D00"/>
<path d="M13.6002 4.00149C17.3537 4.00566 20.3955 7.04747 20.3997 10.801C20.3997 11.0219 20.5788 11.2009 20.7997 11.2009C21.0206 11.2009 21.1996 11.0219 21.1996 10.801C21.195 6.60585 17.7954 3.20617 13.6002 3.20158C13.3793 3.20158 13.2003 3.38063 13.2003 3.60153C13.2003 3.82244 13.3793 4.00149 13.6002 4.00149Z" fill="#C68D00"/>
<path d="M13.6002 6.4013C16.0289 6.40416 17.997 8.37229 17.9999 10.801C17.9999 11.0219 18.179 11.2009 18.3999 11.2009C18.6208 11.2009 18.7998 11.0219 18.7998 10.801C18.7965 7.93067 16.4705 5.60468 13.6002 5.60139C13.3793 5.60139 13.2003 5.78044 13.2003 6.00135C13.2003 6.22225 13.3793 6.4013 13.6002 6.4013Z" fill="#C68D00"/>
<path d="M13.6002 8.80112C14.7041 8.80243 15.5987 9.69702 15.6001 10.801C15.6001 11.0219 15.7792 11.2009 16 11.2009C16.2209 11.2009 16.4 11.0219 16.4 10.801C16.3982 9.25544 15.1458 8.00294 13.6002 8.00121C13.3793 8.00121 13.2003 8.18026 13.2003 8.40116C13.2003 8.62207 13.3793 8.80112 13.6002 8.80112Z" fill="#C68D00"/>
</svg>
