<svg width="75" height="28" viewBox="0 0 75 28" fill="none" xmlns="http://www.w3.org/2000/svg">
<g clip-path="url(#clip0_2_30)">
<path d="M38.7211 9.27423L42.2893 9.04238C42.3707 9.62884 42.5199 10.0653 42.7641 10.379C43.1576 10.8699 43.7003 11.1154 44.4193 11.1154C44.9484 11.1154 45.369 10.9927 45.6539 10.7336C45.9253 10.529 46.0881 10.2017 46.0881 9.86069C46.0881 9.53337 45.9389 9.21968 45.6811 9.0151C45.4097 8.7696 44.7721 8.52411 43.7681 8.30589C42.1264 7.93765 40.9461 7.44666 40.2542 6.81929C39.5622 6.23283 39.1688 5.3736 39.1959 4.45981C39.1959 3.83244 39.3859 3.20507 39.7386 2.6868C40.1456 2.10034 40.7019 1.63663 41.3667 1.3775C42.0857 1.06381 43.0897 0.900146 44.3515 0.900146C45.8982 0.900146 47.0785 1.18656 47.8925 1.77302C48.7066 2.34584 49.195 3.27326 49.3443 4.54165L45.8168 4.74622C45.7218 4.20068 45.5318 3.80516 45.2198 3.54603C44.9077 3.2869 44.5007 3.16415 43.9716 3.16415C43.5374 3.16415 43.2118 3.25962 42.9948 3.43692C42.7912 3.60058 42.6556 3.84608 42.6691 4.11885C42.6691 4.32343 42.7777 4.51437 42.9405 4.63712C43.1169 4.80078 43.5374 4.9508 44.2022 5.08719C45.8439 5.44179 47.0107 5.7964 47.7297 6.16464C48.4488 6.53288 48.9644 6.98295 49.2764 7.51486C49.602 8.0604 49.7648 8.68777 49.7513 9.32879C49.7513 10.0925 49.5342 10.8563 49.1 11.4973C48.6523 12.1656 48.0282 12.6839 47.2956 12.9976C46.5223 13.3385 45.5454 13.5158 44.3786 13.5158C42.3164 13.5158 40.8918 13.1203 40.0914 12.3156C39.2909 11.511 38.816 10.5017 38.7211 9.27423ZM0.85474 13.3113V1.11836H7.10926C8.26248 1.11836 9.15792 1.21383 9.76845 1.41841C10.3654 1.60935 10.8945 2.00487 11.2473 2.53678C11.6407 3.12323 11.8307 3.80516 11.8171 4.51437C11.8578 5.71456 11.2473 6.8602 10.2026 7.4603C9.79559 7.69216 9.34787 7.85582 8.88658 7.93765C9.22576 8.03312 9.56494 8.19678 9.86342 8.38772C10.0941 8.57866 10.284 8.79688 10.4604 9.02874C10.6639 9.26059 10.8403 9.51973 10.9895 9.7925L12.8075 13.3249H8.5474L6.53944 9.57428C6.28166 9.09693 6.06458 8.78324 5.86107 8.63322C5.58973 8.44228 5.26411 8.34681 4.9385 8.34681H4.61288V13.2976H0.85474V13.3113ZM4.61288 6.05553H6.20025C6.53944 6.02825 6.86505 5.9737 7.19067 5.89187C7.43488 5.85095 7.65195 5.71456 7.80119 5.50999C8.16751 5.019 8.11324 4.32343 7.66552 3.90063C7.42131 3.69605 6.94645 3.58695 6.26809 3.58695H4.61288V6.05553ZM0 23.7584L3.5682 23.5265C3.6496 24.113 3.79884 24.5494 4.04305 24.8631C4.42294 25.3541 4.9792 25.6132 5.69826 25.6132C6.22739 25.6132 6.64797 25.4905 6.93289 25.2314C7.20423 25.0131 7.36704 24.6995 7.36704 24.3585C7.36704 24.0312 7.2178 23.7175 6.96002 23.5129C6.68868 23.2674 6.05101 23.0219 5.03347 22.8037C3.39182 22.4355 2.21147 21.9445 1.51954 21.3171C0.827605 20.7306 0.434153 19.8714 0.461288 18.9576C0.461288 18.3302 0.65123 17.7029 1.00398 17.1846C1.411 16.5981 1.96726 16.1344 2.63206 15.8753C3.35112 15.5616 4.3551 15.398 5.61686 15.398C7.16353 15.398 8.34389 15.6844 9.15792 16.2708C9.97196 16.8573 10.4468 17.7711 10.5961 19.0395L7.06856 19.244C6.97359 18.6985 6.78365 18.303 6.4716 18.0438C6.17312 17.7847 5.75253 17.662 5.22341 17.6756C4.78925 17.6756 4.46364 17.7711 4.24656 17.962C4.02949 18.1257 3.90738 18.3712 3.92095 18.6439C3.92095 18.8485 4.02949 19.0395 4.19229 19.1622C4.36867 19.3259 4.78925 19.4759 5.45405 19.6123C7.0957 19.9669 8.26248 20.3215 8.98155 20.6897C9.70061 21.058 10.2162 21.508 10.5282 22.0399C10.8538 22.5855 11.0166 23.2129 11.0166 23.8402C11.0166 24.604 10.786 25.3541 10.3654 25.9951C9.91769 26.6634 9.2936 27.1817 8.56096 27.4954C7.78763 27.8363 6.81078 28.0136 5.64399 28.0136C3.58177 28.0136 2.1572 27.6181 1.35673 26.8134C0.556259 25.9951 0.108538 24.9859 0 23.7584H0Z" fill="#C68D00"/>
<path d="M18.0445 22.8037L21.3278 23.7993C21.1514 24.6313 20.7851 25.4223 20.2831 26.1179C19.8218 26.7316 19.2113 27.209 18.5193 27.5226C17.8138 27.8363 16.9184 28 15.833 28C14.517 28 13.4316 27.8091 12.604 27.4272C11.7628 27.0453 11.0438 26.3634 10.4332 25.395C9.82271 24.4267 9.52423 23.1856 9.52423 21.6717C9.52423 19.6532 10.0534 18.0984 11.1252 17.0209C12.197 15.9435 13.703 15.3979 15.6566 15.3979C17.1898 15.3979 18.3837 15.7116 19.2655 16.3254C20.1339 16.9527 20.7851 17.9074 21.2192 19.1895L17.9088 19.926C17.8274 19.6395 17.7053 19.3531 17.5425 19.1076C17.339 18.8212 17.0812 18.603 16.7692 18.4394C16.4571 18.2757 16.1044 18.2075 15.7516 18.2075C14.8969 18.2075 14.2456 18.5485 13.7979 19.244C13.4587 19.7487 13.2824 20.5533 13.2824 21.6444C13.2824 22.9946 13.4859 23.9221 13.8929 24.4267C14.2999 24.9313 14.8697 25.1768 15.6159 25.1768C16.335 25.1768 16.8777 24.9722 17.244 24.5767C17.6103 24.1539 17.8817 23.5675 18.0445 22.8037ZM25.71 15.6025H29.4546V19.8714H33.5519V15.6025H37.3236V27.7954H33.5519V22.8583H29.4546V27.7954H25.71V15.6025V15.6025Z" fill="#C68D00"/>
<path d="M36.8081 21.699C36.8081 19.7077 37.3643 18.1529 38.4633 17.0482C39.5622 15.9435 41.1089 15.3843 43.0762 15.3843C45.0977 15.3843 46.6444 15.9299 47.7433 17.0209C48.8423 18.112 49.385 19.6395 49.385 21.6035C49.385 23.0355 49.1407 24.1948 48.6659 25.1086C48.2046 26.0088 47.4855 26.7452 46.6037 27.2362C45.6947 27.7409 44.5686 28 43.2254 28C41.8551 28 40.729 27.7818 39.8336 27.3453C38.911 26.8816 38.1512 26.1588 37.6492 25.2723C37.093 24.3176 36.8081 23.131 36.8081 21.699ZM40.5526 21.7126C40.5526 22.9401 40.7833 23.8266 41.231 24.3721C41.6787 24.904 42.3028 25.1768 43.0897 25.1768C43.8902 25.1768 44.5143 24.9177 44.962 24.3858C45.4097 23.8539 45.6268 22.9128 45.6268 21.5489C45.6268 20.4033 45.3962 19.5577 44.9349 19.0394C44.4736 18.5075 43.8495 18.2484 43.0626 18.2484C42.3707 18.2211 41.7059 18.5212 41.2446 19.0531C40.7833 19.585 40.5526 20.4715 40.5526 21.7126V21.7126ZM53.2245 21.699C53.2245 19.7077 53.7808 18.1529 54.8797 17.0482C55.9787 15.9435 57.5253 15.3843 59.4926 15.3843C61.5141 15.3843 63.0744 15.9299 64.1597 17.0209C65.2451 18.112 65.8014 19.6395 65.8014 21.6035C65.8014 23.0355 65.5572 24.1948 65.0823 25.1086C64.621 26.0088 63.902 26.7452 63.0201 27.2362C62.1111 27.7409 60.985 28 59.6418 28C58.2715 28 57.1455 27.7818 56.25 27.3453C55.3274 26.8816 54.5677 26.1588 54.0657 25.2723C53.5094 24.3176 53.2245 23.131 53.2245 21.699V21.699ZM56.9691 21.7126C56.9691 22.9401 57.1997 23.8266 57.6474 24.3721C58.0952 24.904 58.7193 25.1768 59.5062 25.1768C60.3066 25.1768 60.9307 24.9177 61.3784 24.3858C61.8262 23.8539 62.0432 22.9128 62.0432 21.5489C62.0432 20.4033 61.8126 19.5577 61.3513 19.0394C60.89 18.5075 60.2659 18.2484 59.479 18.2484C58.7871 18.2211 58.1087 18.5212 57.661 19.0531C57.1997 19.585 56.9691 20.4715 56.9691 21.7126V21.7126Z" fill="#C68D00"/>
<path d="M65.4079 15.6025H69.1525V24.7949H75V27.7954H65.3943V15.6025H65.4079Z" fill="#C68D00"/>
<path d="M61.2806 14.8989C65.0506 12.0429 66.2131 7.20171 63.8772 4.08566C61.5413 0.969603 56.5914 0.758722 52.8215 3.61464C49.0515 6.47056 47.8889 11.3118 50.2249 14.4278C52.5608 17.5439 57.5106 17.7548 61.2806 14.8989Z" stroke="#C68D00" stroke-miterlimit="10"/>
<path d="M53.2381 8.36043L54.5948 7.40573L56.2636 9.79248C56.5485 10.1744 56.7656 10.5835 56.9284 11.0336C57.0234 11.3746 56.9962 11.7428 56.8606 12.0701C56.6842 12.4793 56.3993 12.8202 56.0194 13.0657C55.5717 13.3794 55.1918 13.5567 54.8662 13.6113C54.5541 13.6658 54.2285 13.6113 53.93 13.4749C53.6044 13.3112 53.3195 13.0794 53.1024 12.7793L54.2692 11.6882C54.3642 11.8383 54.4863 11.9747 54.622 12.0838C54.7169 12.152 54.8255 12.1929 54.9476 12.1929C55.0425 12.1929 55.1375 12.152 55.2053 12.0974C55.341 12.0156 55.436 11.8519 55.4224 11.6882C55.3817 11.4564 55.2868 11.2245 55.1375 11.0472L53.2381 8.36043V8.36043ZM57.3083 9.87431L58.5429 8.89233C58.6786 9.056 58.855 9.17874 59.0449 9.24694C59.3162 9.32877 59.6012 9.27421 59.8318 9.09691C59.9946 8.9878 60.1303 8.83778 60.1845 8.64684C60.266 8.40134 60.1303 8.12857 59.8861 8.04674C59.8454 8.0331 59.8047 8.01946 59.764 8.01946C59.6012 8.00582 59.3162 8.07402 58.8957 8.25132C58.2037 8.53773 57.661 8.64684 57.254 8.60592C56.8606 8.56501 56.4942 8.36043 56.2772 8.01946C56.1144 7.78761 56.033 7.51484 56.0194 7.24206C56.0194 6.92838 56.1008 6.61469 56.2772 6.35556C56.5349 5.98732 56.847 5.67363 57.2269 5.42813C57.7967 5.03261 58.2987 4.84167 58.7328 4.84167C59.167 4.84167 59.574 5.04625 59.9539 5.46905L58.7328 6.43739C58.4886 6.1237 58.0273 6.05551 57.7153 6.301L57.6746 6.34192C57.5389 6.42375 57.444 6.5465 57.3897 6.69652C57.349 6.80563 57.3761 6.92838 57.444 7.02385C57.4982 7.09204 57.5796 7.14659 57.6746 7.14659C57.7831 7.16023 57.9731 7.10568 58.2444 6.98293C58.9228 6.69652 59.4383 6.53286 59.7911 6.4783C60.0896 6.42375 60.4016 6.45103 60.6865 6.57377C60.9443 6.68288 61.1614 6.87382 61.3106 7.10568C61.5006 7.37845 61.6091 7.70578 61.6227 8.04674C61.6363 8.40134 61.5413 8.74231 61.3513 9.04236C61.1071 9.4106 60.7951 9.72429 60.4288 9.96978C59.6826 10.488 59.072 10.7063 58.5836 10.6244C58.0545 10.5426 57.6203 10.2698 57.3083 9.87431V9.87431Z" fill="#C68D00"/>
</g>
<defs>
<clipPath id="clip0_2_30">
<rect width="75" height="28" fill="white"/>
</clipPath>
</defs>
</svg>
